# xmcd
#
# Track frame offsets:
#	150
#	14233
#	29004
#	44588
#	59770
#	75221
#	93755
#	109590
#	123744
#	138256
#	152792
#	169387
#	183458
#
# Disc length: 2653 seconds
#
# Revision: 0
# Processed by: cddbd v1.5.2PL0 Copyright (c) Steve Scherf et al.
# Submitted via: audiograbber 1.83.01
#
DISCID=b50a5b0d
DTITLE=Dustin Lynch - Current Mood
DYEAR=2017
DGENRE=Country
TTITLE0=I'd Be Jealous Too
TTITLE1=Seein' Red
TTITLE2=Small Town Boy
TTITLE3=Why We Call Each Other
TTITLE4=Here We Come
TTITLE5=Love Me Or Leave Me Alone
TTITLE6=Back On It
TTITLE7=I Wish You Were Beer
TTITLE8=State Lines
TTITLE9=Party Song
TTITLE10=New Girl
TTITLE11=Why Not Tonight
TTITLE12=Sun Don't Go Down On That
EXTD=
EXTT0=
EXTT1=
EXTT2=
EXTT3=
EXTT4=
EXTT5=
EXTT6=
EXTT7=
EXTT8=
EXTT9=
EXTT10=
EXTT11=
EXTT12=
PLAYORDER=
